<?xml version="1.0" encoding="UTF-8" standalone="no"?>
<!DOCTYPE svg PUBLIC "-//W3C//DTD SVG 1.1//EN" "http://www.w3.org/Graphics/SVG/1.1/DTD/svg11.dtd">
<svg width="100%" height="100%" viewBox="0 0 1029 413" version="1.1" xmlns="http://www.w3.org/2000/svg" xmlns:xlink="http://www.w3.org/1999/xlink" xml:space="preserve" xmlns:serif="http://www.serif.com/" style="fill-rule:evenodd;clip-rule:evenodd;stroke-linejoin:round;stroke-miterlimit:2;">
    <rect id="Artboard1" x="0" y="0" width="1028.91" height="412.666" style="fill:none;"/>
    <clipPath id="_clip1">
        <rect x="0" y="0" width="1028.91" height="412.666"/>
    </clipPath>
    <g clip-path="url(#_clip1)">
        <rect x="-509.543" y="-817.667" width="2048" height="2048" style="fill:#2b343e;"/>
        <g id="Layer7">
            <path d="M422.647,309.237c-30.943,-28.005 -50.396,-68.481 -50.396,-113.465c-0,-84.443 68.547,-153 152.978,-153c49.488,0 93.519,23.553 121.489,60.052c-0.38,-0.017 -0.762,-0.026 -1.146,-0.026c-2.806,0 -5.503,0.47 -8.016,1.337c-26.595,-32.561 -67.051,-53.363 -112.327,-53.363c-80.016,0 -144.978,64.973 -144.978,145c-0,41.028 17.074,78.098 44.497,104.486l-2.101,8.979Zm3.625,-15.495c-24.915,-25.172 -40.31,-59.787 -40.31,-97.97c-0,-76.875 62.404,-139.287 139.267,-139.287c43.007,-0 81.487,19.538 107.042,50.217c-0.845,0.544 -1.654,1.137 -2.424,1.777c-25.005,-29.936 -62.603,-48.994 -104.618,-48.994c-75.208,-0 -136.267,61.068 -136.267,136.287c-0,36.681 14.52,69.997 38.121,94.506l-0.811,3.464Zm44.939,27.173c16.566,7.17 34.832,11.144 54.018,11.144c75.209,0 136.268,-61.068 136.268,-136.287c-0,-15.823 -2.702,-31.02 -7.669,-45.154c0.95,-0.338 1.873,-0.733 2.765,-1.181c5.119,14.498 7.904,30.094 7.904,46.335c-0,76.875 -62.404,139.287 -139.268,139.287c-19.434,0 -37.944,-3.99 -54.755,-11.195c0.225,-0.827 0.436,-1.66 0.632,-2.5c0,-0 0.036,-0.154 0.105,-0.449Zm-2.465,8.423c17.362,7.362 36.451,11.434 56.483,11.434c80.016,0 144.979,-64.972 144.979,-145c0,-17.411 -3.075,-34.11 -8.711,-49.582c2.362,-2.006 4.341,-4.45 5.811,-7.205c7.031,17.562 10.9,36.726 10.9,56.787c0,84.443 -68.548,153 -152.979,153c-21.144,0 -41.293,-4.3 -59.618,-12.072c1.175,-2.376 2.223,-4.833 3.135,-7.362Z" style="fill:#c8beaf;"/>
            <path d="M564.241,238.832c-1.906,0.66 -3.952,1.019 -6.081,1.019l-64.737,0c-5.824,0 -10.866,4.043 -12.133,9.727c-4.975,21.377 -16.411,70.33 -16.411,70.33c-6.846,29.278 -32.954,49.986 -63.021,49.986l-13.995,0c-0.789,0 -1.566,-0.049 -2.328,-0.145c5.105,-4.505 8.328,-11.096 8.328,-18.433c-0,-7.338 -3.223,-13.928 -8.328,-18.434c0.762,-0.095 1.539,-0.144 2.328,-0.144l13.995,-0c12.805,-0 23.924,-8.82 26.84,-21.289l17.698,-75.651c0.507,-2.323 7.434,-34.073 13.838,-63.352c8.322,-38.15 42.108,-65.335 81.144,-65.31c22.7,-0.228 46.969,-0.272 60.195,0.281c10.245,0.429 18.214,9.095 17.785,19.339c-0.429,10.245 -9.094,18.214 -19.339,17.785c-12.822,-0.537 -36.365,-0.471 -58.367,-0.249l-0.227,0.001c-21.59,-0.047 -40.287,14.978 -44.888,36.072l-0.003,0.01l-2.201,10.067c-0.653,2.986 0.082,6.107 1.999,8.488c1.917,2.38 4.808,3.765 7.865,3.765l53.963,-0c2.129,-0 4.175,0.359 6.081,1.019c-4.547,4.468 -7.369,10.687 -7.369,17.559c0,6.872 2.822,13.09 7.369,17.559Z" style="fill:#fff;"/>
            <path d="M502.782,181.741l-2.201,10.067c-0.239,1.095 0.03,2.239 0.733,3.111c0.702,0.873 1.762,1.38 2.883,1.38l53.963,0c2.863,0 5.613,0.485 8.176,1.373c2.09,0.725 3.658,2.479 4.144,4.637c0.486,2.159 -0.178,4.416 -1.757,5.967c-3.366,3.307 -5.456,7.91 -5.456,12.997c0,5.087 2.09,9.689 5.456,12.997c1.579,1.551 2.243,3.808 1.757,5.966c-0.486,2.159 -2.054,3.913 -4.144,4.638c-2.563,0.888 -5.313,1.372 -8.176,1.372l-64.737,0c-2.828,0 -5.276,1.963 -5.891,4.723l-0.013,0.058c-4.975,21.379 -16.413,70.337 -16.413,70.337c-7.522,32.171 -36.209,54.925 -69.248,54.925l-13.995,0c-1.058,0 -2.1,-0.066 -3.123,-0.194c-2.495,-0.312 -4.575,-2.058 -5.316,-4.46c-0.742,-2.403 -0.006,-5.017 1.879,-6.681c3.778,-3.333 6.164,-8.209 6.164,-13.638c0,-5.429 -2.386,-10.305 -6.164,-13.638c-1.885,-1.664 -2.621,-4.278 -1.879,-6.681c0.741,-2.402 2.821,-4.148 5.316,-4.46c1.023,-0.128 2.065,-0.195 3.123,-0.195l13.995,0c9.834,0 18.374,-6.773 20.613,-16.349l17.687,-75.605c0.583,-2.673 7.464,-34.211 13.827,-63.305c8.962,-41.078 45.333,-70.352 87.361,-70.342c22.815,-0.229 47.202,-0.27 60.495,0.286c13.771,0.577 24.483,12.225 23.907,25.997c-0.576,13.771 -12.225,24.483 -25.996,23.907c-12.749,-0.534 -36.159,-0.465 -58.035,-0.244l-0.065,0l-0.227,0.001l-0.013,-0c-18.579,-0.04 -34.667,12.889 -38.627,31.041l-0.001,0.002l-6.237,5.03l6.235,-5.02c-0.381,1.73 -1.441,3.166 -2.863,4.052c1.213,-0.707 2.397,-1.932 2.863,-4.052Zm-7.347,3.663l1.09,1.354l0.002,0.001c-0.058,-0.093 -0.461,-0.732 -1.036,-1.611l1.043,-4.773l0.003,-0.01c4.601,-21.094 23.298,-36.119 44.888,-36.072l0.227,-0.001c22.002,-0.222 45.545,-0.288 58.367,0.249c10.245,0.429 18.91,-7.54 19.339,-17.785c0.429,-10.244 -7.54,-18.91 -17.785,-19.339c-13.226,-0.553 -37.495,-0.509 -60.195,-0.281c-39.036,-0.025 -72.822,27.16 -81.144,65.31c-6.404,29.279 -13.331,61.029 -13.838,63.352l-17.698,75.651c-2.916,12.469 -14.035,21.289 -26.84,21.289l-13.995,-0c-0.789,-0 -1.566,0.049 -2.328,0.144c5.105,4.506 8.328,11.096 8.328,18.434c-0,7.337 -3.223,13.928 -8.328,18.433c0.762,0.096 1.539,0.145 2.328,0.145l13.995,0c30.067,0 56.175,-20.708 63.021,-49.986c-0,0 11.436,-48.953 16.411,-70.33c1.267,-5.684 6.309,-9.727 12.133,-9.727l64.737,0c2.129,0 4.175,-0.359 6.081,-1.019c-4.547,-4.469 -7.369,-10.687 -7.369,-17.559c0,-6.872 2.822,-13.091 7.369,-17.559c-1.906,-0.66 -3.952,-1.019 -6.081,-1.019l-53.963,-0c-3.057,-0 -5.948,-1.385 -7.865,-3.765c-1.917,-2.381 -2.652,-5.502 -1.999,-8.488l1.102,-5.038Zm1.099,1.367l-0.006,-0.01l-0.001,-0l0.007,0.01Z" style="fill:#2b343e;"/>
            <circle cx="645.572" cy="127.419" r="18.62" style="fill:#5c8ef1;"/>
            <circle cx="581.493" cy="221.273" r="18.62" style="fill:#ef32a2;"/>
            <circle cx="369.284" cy="351.316" r="18.578" style="fill:#4fc926;"/>
        </g>
    </g>
</svg>
